#define desk_width 8
#define desk_height 8
static unsigned char desk_bits[] = {
   0x18, 0x18, 0x00, 0xdb, 0xdb, 0x00, 0x18, 0x18 };
